<svg width="41" height="42" viewBox="0 0 41 42" fill="none" xmlns="http://www.w3.org/2000/svg">
<path fill-rule="evenodd" clip-rule="evenodd" d="M0 21C0 32.598 9.17816 42 20.5 42C31.8218 42 41 32.598 41 21C41 9.40202 31.8218 0 20.5 0C9.17816 0 0 9.40202 0 21ZM31.0451 21.1162C31.0451 21.8926 30.9628 22.6482 30.8046 23.3779C31.2071 24.1958 31.4333 25.1163 31.4333 26.0914C31.4333 29.4644 28.7257 32.2 25.3855 32.2C24.3506 32.2 23.3786 31.9364 22.5262 31.4742C21.9065 31.5898 21.2688 31.6508 20.6157 31.6508C14.8559 31.6508 10.1864 26.9353 10.1864 21.1162C10.1864 20.3917 10.2596 19.6828 10.3972 18.9999C9.87008 18.0911 9.56667 17.0369 9.56667 15.9099C9.56667 12.5343 12.2743 9.8 15.6157 9.8C16.7973 9.8 17.9004 10.1441 18.8325 10.7374C19.4136 10.6361 20.0089 10.5829 20.6157 10.5829C26.3768 10.5829 31.0451 15.2997 31.0451 21.1162Z" fill="#1E2E5C"/>
<path d="M25.9653 26.1511C25.4832 26.8418 24.7709 27.3871 23.8453 27.774C22.9311 28.1583 21.8358 28.3543 20.5874 28.3543C19.0896 28.3543 17.8335 28.0882 16.8525 27.5623C16.1518 27.1806 15.5745 26.6639 15.1361 26.0225C14.6926 25.3786 14.4689 24.7385 14.4689 24.1192C14.4689 23.7349 14.6154 23.3999 14.9034 23.126C15.1888 22.8533 15.5553 22.717 15.9924 22.717C16.3498 22.717 16.6597 22.8248 16.9104 23.039C17.1508 23.2454 17.3565 23.5505 17.5223 23.9413C17.7075 24.3698 17.908 24.7307 18.1202 25.0124C18.3259 25.2877 18.6203 25.5175 18.9957 25.698C19.3737 25.8771 19.8841 25.9706 20.5102 25.9706C21.3729 25.9706 22.08 25.7836 22.611 25.4175C23.1317 25.0605 23.3837 24.6294 23.3837 24.1023C23.3837 23.6881 23.2513 23.361 22.9813 23.1039C22.6959 22.8364 22.3217 22.6287 21.8679 22.4833C21.3935 22.3353 20.7507 22.173 19.9548 22.0042C18.871 21.7705 17.9518 21.494 17.2215 21.1785C16.4732 20.8578 15.8703 20.4125 15.4293 19.8555C14.9819 19.2881 14.7543 18.5779 14.7543 17.7431C14.7543 16.9485 14.9921 16.2306 15.4627 15.6126C15.9281 14.9985 16.6095 14.5181 17.4876 14.1922C18.3529 13.8689 19.3814 13.7053 20.5475 13.7053C21.4783 13.7053 22.2973 13.8144 22.9813 14.0299C23.6691 14.2454 24.2477 14.5363 24.7028 14.8959C25.1618 15.2594 25.5038 15.645 25.7172 16.0475C25.9332 16.4539 26.0438 16.8577 26.0438 17.2485C26.0438 17.625 25.8998 17.9677 25.6156 18.265C25.3302 18.5663 24.9689 18.7182 24.5447 18.7182C24.159 18.7182 23.8555 18.6221 23.6473 18.4351C23.4518 18.2598 23.2487 17.9872 23.0237 17.5977C22.764 17.0991 22.449 16.7058 22.0877 16.4279C21.7368 16.1579 21.1518 16.0228 20.3457 16.0228C19.6 16.0228 18.9906 16.1734 18.5393 16.4734C18.1047 16.7603 17.8926 17.0914 17.8926 17.4834C17.8926 17.7223 17.9608 17.9236 18.1022 18.095C18.2487 18.2793 18.4583 18.4377 18.7232 18.5727C18.997 18.7117 19.2798 18.8233 19.5627 18.9012C19.852 18.983 20.338 19.1038 21.0052 19.2596C21.8499 19.4413 22.6252 19.6478 23.3104 19.8698C24.006 20.0931 24.6051 20.3683 25.0962 20.6916C25.5951 21.0201 25.9898 21.4407 26.2713 21.9445C26.5529 22.4521 26.6956 23.0753 26.6956 23.8011C26.6956 24.6684 26.4487 25.4591 25.9653 26.1511Z" fill="#1E2E5C"/>
</svg>
